<svg viewBox="0 0 360 74.4" xmlns="http://www.w3.org/2000/svg"><rect width="360" height="74.4" ry=".3" fill="#fff"/><path d="M10.9 39.4h9.4v-1.1c-2.5-.2-3.5-.4-3.7-2q-.3-1.8-.3-5V15.7L26.7 39h1l10.4-23.4h.1v20.1c0 2.2 0 2.3-3.5 2.6v1.1h11v-1.1c-3.4-.3-3.6-.4-3.6-2.6v-20c0-2.3.2-2.3 3.6-2.6V12h-8q-2.1 5.3-4.5 10.5L28.3 33l-4.7-10.6L18.9 12h-8v1c3.5.3 3.6.3 3.6 2.6v15.7q0 3-.3 4.9c-.3 1.7-1.3 1.8-3.3 2.1Zm36.9-9.5c0 6.2 2.7 10 9.1 10 4.4 0 6.7-2.5 7.7-5.6l-1.2-.6c-1 2.3-2.6 4.2-5.7 4.2-5 0-5.9-4.8-5.8-9h11.4c.8 0 1.6-.1 1.6-1.4 0-2.4-.8-8-8-8-6.2 0-9.1 4.4-9.1 10.4m4.1-2.4c0-1.6.6-6.6 4.7-6.6 3.7 0 4.2 3.8 4.2 5.3q.1 1.3-1.4 1.3zM68.1 30c0 6 3 9.9 8.3 9.9q3 0 6.2-2.7v2l.3.2h6.4v-1.1c-2.8-.2-3-.3-3-2.3V10.2L86 10l-6.1 1v1l1.5.1c1 .2 1.3.4 1.3 1.9v6.5q-1.7-1-4.4-1-5 0-7.3 2.7a11 11 0 0 0-2.8 7.9m4.1-.4c0-5.1 2-8.7 6-8.7q2.8 0 4 2.5c.4.7.4 1.2.4 2.3v7q0 1.2-.3 2.2-1.3 2.9-4.6 2.8c-3.6 0-5.5-3.5-5.5-8m21.2-16.3q.1 2.3 2.4 2.4 2.4-.2 2.5-2.4-.1-2.2-2.5-2.5-2.2.1-2.4 2.4m-2.3 26h9.6v-1.2c-2.8-.2-3-.3-3-2.3V19.7l-.2-.2-6.3 1v1l1.6.2c1 .1 1.2.3 1.2 1.8V36c0 2-.1 2-3 2.3zm12.2-5.1c0 3 2 5.6 5.7 5.6 2.3 0 4.6-1.6 5.9-2.4q.7 2.3 2.5 2.4 2.3 0 4.7-1.2l-.2-1a5 5 0 0 1-2 0c-.8 0-1.4-.8-1.4-3.3v-9.6c0-2.3-.5-5.3-6.5-5.3-4.5 0-8 2.3-8 4.5 0 1.3 1.4 1.9 2.2 1.9q1 0 1.3-1.1c.8-3 2.5-3.9 4-3.9 1.6 0 3.4.8 3.4 4v1.6c-1 1-4.8 2-8 3-2.8 1-3.6 2.9-3.6 4.8m4-.6c0-1.9.8-2.8 3-3.6 1.6-.6 3.7-1.4 4.6-2v5.6c0 3.2-2.4 4-4 4-2.5 0-3.6-1.7-3.6-4m16.6-7.8q.1 7 3.8 10.7 3.9 3.6 10.8 3.4c3.2 0 6.8-.9 8.7-1.9l.6-6.6h-1.2c-1.1 4.1-3.2 7.1-8.3 7.1-8.2 0-10-8-10-12.8 0-6.5 2.7-13 10-13 4 0 6.9 1.6 7.6 6.3h1.2V13a21 21 0 0 0-8.4-1.5c-4.8 0-8.8 1.4-11.1 4a15 15 0 0 0-3.8 10.5m26.8 3.7c0 6.4 3.1 10.2 9.5 10.2s9.5-3.8 9.5-10.2-3-10.2-9.5-10.2-9.5 3.8-9.5 10.2m4.1 0c0-5.5 1.8-8.8 5.4-8.8s5.4 3.3 5.4 8.8-1.7 8.8-5.4 8.8c-3.6 0-5.4-3.3-5.4-8.8m15.6-8.6c1.6.1 2.1.2 2.6 1.7q2.6 7.8 5 16.6h3l4.7-15h.2l4.8 15h3c1.7-5.8 4-12.9 5-16 .7-2 1.2-2.1 3.1-2.3V20H194v1l2.3.2q1 .2.5 1.3c-.5 2.4-2.3 8.8-3.5 13.3h-.1l-5-15.4h-3l-4.6 15.4q-2.2-7-4-13.5-.3-1 .7-1.1l1.4-.2v-1h-8.3zm40.3-2.5h1.2c.4-4.4 1.3-5.2 6-5.2h2.2v22.3c0 2.2 0 2.3-4.3 2.6v1.1h12.6v-1.1c-4.2-.3-4.3-.4-4.3-2.6V13.4h2.3c4.6 0 5.5.8 6 5.2h1.1V12h-22.8zm21.7 11.1c0 6.4 3.1 10.2 9.5 10.2s9.5-3.8 9.5-10.2-3.1-10.2-9.5-10.2-9.5 3.8-9.5 10.2m4.1 0c0-5.5 1.8-8.8 5.4-8.8s5.4 3.3 5.4 8.8-1.8 8.8-5.4 8.8-5.4-3.3-5.4-8.8m17.8-8.2 1.6.2c1 .1 1.2.3 1.2 1.8v10.4c0 4.6 2.7 6 5.6 6 3.4 0 6.2-2.3 7.3-2.9l.4 2.4h6.3v-1.1c-2.7-.2-3-.3-3-2.3V19.7l-.2-.2-6.2 1v1l1.5.2c1 .1 1.2.3 1.2 1.8v8.9q0 1.7-.3 2.4c-.9 1.8-2.8 3-4.9 3s-4-1.5-4-4.6V19.7l-.2-.2-6.3 1zm25 8.4q.1 10 9.2 10c2.7 0 6.5-1.5 7.6-5.7l-1.2-.6c-1.2 2.8-2.8 4.2-5.7 4.2-4.7 0-5.8-4.9-5.8-8.6 0-6 2.3-8.3 5-8.3q2.7.1 3.8 3.4.3 1 1.3 1c.8 0 2.3-.4 2.3-2 0-1.8-2.6-3.8-6.9-3.8-7.2 0-9.6 5.1-9.6 10.4m18.6 9.5h9.6v-1.1c-2.8-.2-3-.4-3-2.3v-9.3q0-1.4.3-2.2a6 6 0 0 1 4.8-2.8q4.1-.1 4.2 5V36c0 1.9-.2 2-3 2.3v1.1h9.7v-1.1c-2.8-.2-3-.4-3-2.3V25.8q-.2-6.1-5.9-6.3c-2.9 0-4.7 1.4-7.2 3V10.2l-.2-.2-6.2 1v1l1.5.2c1 .1 1.3.3 1.3 1.8v22c0 1.9-.2 2-3 2.3zM331 39l.4.4h16.5l1.4-5.2-1.1-.2c-.9 2.1-1.7 2.4-3.2 2.4h-10.2c.7-2 3-4.9 6.7-7.5 3.8-2.8 6.7-4.6 6.7-9 0-5.5-3.6-7.4-7.8-7.4-5.4 0-8.2 3.2-8.2 5.3 0 1.4 1.5 2 2.1 2q1 0 1.2-1c.6-2.8 2.2-5 4.6-5 3 0 4 2.6 4 5.5 0 4.3-2.2 6.6-5.6 9.7-5 4.2-6.6 7-7.4 10" aria-label="MediaCow Touch 2"/><text xml:space="preserve" x="73.5" y="81.3" font-weight="400" font-size="1" stroke-width=".3"><tspan  x="73.5" y="81.3">t</tspan></text><path d="M19.4 61.7h-4.5v-.9H14V59h1.8v1.8h3.6v-4.5h-4.5v-.9H14v-4.5h.9V50h5.4v.9h.9v1.8h-1.8v-1.8h-3.6v4.5h4.5v.9h.9v4.5h-.9v.9zm4.5 2.7v-.9h4.5v-1.8h-4.5v-.9H23v-7.2h1.8v7.2h3.6v-7.2h1.8v9.9h-.9v.9h-4.5zm8.1-3.6v-.9h1.8v.9h3.6v-2.7h-4.5v-.9H32v-2.7h.9v-.9h5.4v.9h.9v.9h-1.8v-.9h-3.6v2.7h4.5v.9h.9v2.7h-.9v.9h-5.4v-.9zm9-6.3v-.9h1.8V50h1.8v3.6h1.8v.9h-1.8v6.3h2.7v.9h-3.6v-.9h-.9v-6.3h-.9zm14.4 7.2h-4.5v-.9H50v-6.3h.9v-.9h5.4v.9h.9v3.6h-5.4v2.7h3.6v-.9h1.8v.9h-.9v.9zm-.9-4.5h.9v-2.7h-3.6v2.7h1.8zm10.8 4.5h-.9v-7.2h-.9v7.2h-1.8v-7.2h-.9v7.2H59v-8.1h6.3v.9h.9v7.2zm18 0h-.9v-8.1h-.9v.9h-.9v.9h-.9v-.9h-.9v-.9h-.9v8.1h-1.8V50h.9v.9h.9v.9h.9v.9h.9v.9h.9v-.9h.9v-.9h.9v-.9h.9V50h.9v11.7zm3.6-7.2v-.9h5.4v.9h.9v7.2h-6.3v-.9H86v-3.6h.9v-.9h4.5v-1.8h-3.6zm3.6 6.3h.9v-3.6h-3.6v3.6h1.8zm10.8.9h-.9v-7.2h-3.6v7.2H95v-8.1h6.3v.9h.9v7.2zm3.6-7.2v-.9h5.4v.9h.9v7.2h-6.3v-.9h-.9v-3.6h.9v-.9h4.5v-1.8h-3.6zm3.6 6.3h.9v-3.6h-3.6v3.6h1.8zm5.4 3.6v-.9h4.5v-1.8h-4.5v-.9h-.9v-6.3h.9v-.9h6.3v9.9h-.9v.9h-4.5zm3.6-3.6h.9v-6.3h-3.6v6.3h1.8zm9.9.9h-4.5v-.9h-.9v-6.3h.9v-.9h5.4v.9h.9v3.6h-5.4v2.7h3.6v-.9h1.8v.9h-.9v.9zm-.9-4.5h.9v-2.7h-3.6v2.7h1.8zm10.8 4.5h-.9v-7.2h-.9v7.2h-1.8v-7.2h-.9v7.2H131v-8.1h6.3v.9h.9v7.2zm8.1 0h-4.5v-.9h-.9v-6.3h.9v-.9h5.4v.9h.9v3.6h-5.4v2.7h3.6v-.9h1.8v.9h-.9v.9zm-.9-4.5h.9v-2.7h-3.6v2.7h1.8zm10.8 4.5h-.9v-7.2h-3.6v7.2H149v-8.1h6.3v.9h.9v7.2zm2.7-7.2v-.9h1.8V50h1.8v3.6h1.8v.9h-1.8v6.3h2.7v.9h-3.6v-.9h-.9v-6.3h-.9zm24.3 7.2H176V50h7.2v.9h-5.4v4.5h3.6v.9h-3.6v4.5h5.4v.9zm9 0h-.9v-7.2h-.9v7.2h-1.8v-7.2h-.9v7.2H185v-8.1h6.3v.9h.9v7.2zm8.1 0H194V50h1.8v3.6h4.5v.9h.9v6.3h-.9v.9zm-.9-.9h.9v-6.3h-3.6v6.3h1.8zm9.9.9h-4.5v-.9h-.9v-6.3h.9v-.9h5.4v.9h.9v3.6h-5.4v2.7h3.6v-.9h1.8v.9h-.9v.9zm-.9-4.5h.9v-2.7h-3.6v2.7h1.8zm10.8 4.5h-5.4v-.9h-.9v-6.3h.9v-.9h4.5V50h1.8v11.7zm-1.8-.9h.9v-6.3h-3.6v6.3h1.8zm10.8.9h-5.4v-.9h-.9v-6.3h.9v-.9h4.5V50h1.8v11.7zm-1.8-.9h.9v-6.3h-3.6v6.3h1.8zm9.9.9h-4.5v-.9h-.9v-6.3h.9v-.9h5.4v.9h.9v3.6h-5.4v2.7h3.6v-.9h1.8v.9h-.9v.9zm-.9-4.5h.9v-2.7h-3.6v2.7h1.8zm10.8 4.5h-5.4v-.9h-.9v-6.3h.9v-.9h4.5V50h1.8v11.7zm-1.8-.9h.9v-6.3h-3.6v6.3h1.8zm18.9.9h-4.5v-.9h-.9v-9.9h.9V50h5.4v.9h.9v1.8h-1.8v-1.8h-3.6v9.9h3.6V59h1.8v1.8h-.9v.9zm9 0h-4.5v-.9h-.9v-6.3h.9v-.9h5.4v.9h.9v6.3h-.9v.9zm-.9-.9h.9v-6.3h-3.6v6.3h1.8zm10.8.9h-.9v-7.2h-3.6v7.2H275v-8.1h6.3v.9h.9v7.2zm2.7-7.2v-.9h1.8V50h1.8v3.6h1.8v.9h-1.8v6.3h2.7v.9h-3.6v-.9h-.9v-6.3h-.9zm9.9 7.2h-.9v-8.1h1.8v.9h.9v-.9h4.5v.9h-3.6v.9h-.9v.9h-.9v5.4zm13.5 0h-4.5v-.9h-.9v-6.3h.9v-.9h5.4v.9h.9v6.3h-.9v.9zm-.9-.9h.9v-6.3h-3.6v6.3h1.8zm6.3.9v-.9h.9v-9.9h-.9V50h2.7v10.8h.9v.9h-2.7zm9 0v-.9h.9v-9.9h-.9V50h2.7v10.8h.9v.9h-2.7zm12.6 0h-4.5v-.9h-.9v-6.3h.9v-.9h5.4v.9h.9v3.6h-5.4v2.7h3.6v-.9h1.8v.9h-.9v.9zm-.9-4.5h.9v-2.7h-3.6v2.7h1.8zm5.4 4.5h-.9v-8.1h1.8v.9h.9v-.9h4.5v.9h-3.6v.9h-.9v.9h-.9v5.4z" style="line-height:1;-inkscape-font-specification:&quot;ter-u20b.&quot;" font-size="18" font-family="ter-u20b."/></svg>
